
<svg version="1.0" fill="black" xmlns="http://www.w3.org/2000/svg"
 width="200.000000pt" height="200.000000pt" viewBox="0 0 200.000000 200.000000"
 preserveAspectRatio="xMidYMid meet">

<g transform="translate(0.000000,200.000000) scale(0.100000,-0.100000)" stroke="none">
<path d="M465 1896 c-47 -21 -93 -79 -100 -129 -7 -45 10 -104 40 -137 13 -15
4 -41 -83 -236 l-98 -219 -50 -6 c-61 -8 -84 -19 -118 -59 -91 -109 -18 -270
122 -270 l39 0 85 -248 c83 -240 85 -248 67 -267 -92 -103 -15 -275 123 -275
73 0 133 39 156 101 10 25 20 28 249 73 131 26 247 50 259 52 16 4 26 -3 42
-30 29 -50 76 -76 135 -76 131 0 207 118 153 238 l-19 41 64 83 c35 46 102
134 149 195 l85 112 48 0 c173 2 233 201 93 305 -19 15 -44 21 -84 23 l-56 1
-148 192 c-81 106 -148 198 -148 205 0 8 4 17 10 20 5 3 14 24 20 45 27 101
-57 210 -162 210 -51 0 -116 -37 -141 -81 -19 -34 -25 -38 -52 -34 -41 7 -429
55 -443 55 -6 0 -14 10 -17 23 -25 81 -138 129 -220 93z m120 -101 c14 -13 25
-36 25 -50 0 -30 -49 -85 -75 -85 -21 0 -57 19 -72 39 -35 45 7 121 67 121 19
0 40 -9 55 -25z m802 -60 c26 -18 38 -67 23 -94 -17 -33 -56 -54 -85 -47 -62
16 -84 80 -44 130 24 30 71 35 106 11z m-433 -74 c131 -16 221 -32 224 -39 2
-6 14 -28 28 -47 l24 -36 -57 -184 -58 -183 -42 -4 -42 -3 -168 208 c-230 285
-207 250 -188 287 19 36 3 36 279 1z m-199 -293 c221 -274 201 -243 179 -284
l-19 -34 -285 0 -285 0 -22 39 -22 39 80 183 c45 101 90 203 100 227 17 40 20
42 61 42 l43 0 170 -212z m725 29 c47 -61 114 -149 149 -195 l64 -83 -19 -34
-19 -35 -208 0 c-189 0 -208 2 -214 18 -3 9 -14 26 -24 37 -17 19 -15 27 43
210 l60 191 42 1 c41 1 41 1 126 -110z m-1243 -339 c64 -60 -18 -172 -92 -124
-34 22 -47 52 -40 87 13 57 88 79 132 37z m898 -3 c14 -13 25 -36 25 -50 0
-30 -49 -85 -75 -85 -21 0 -57 19 -72 39 -35 45 7 121 67 121 19 0 40 -9 55
-25z m732 10 c26 -18 38 -67 23 -94 -17 -33 -56 -54 -85 -47 -63 16 -86 88
-43 133 25 27 73 31 105 8z m-929 -147 c22 -41 22 -42 4 -62 -11 -12 -106
-124 -212 -249 -191 -227 -192 -228 -228 -225 l-37 3 -84 244 c-81 238 -83
245 -67 270 10 14 20 34 23 44 5 16 28 17 292 17 l286 0 23 -42z m735 6 c9
-19 14 -41 10 -47 -3 -7 -71 -96 -150 -198 l-143 -185 -42 5 -41 6 -57 185
-56 184 23 35 c13 18 23 38 23 42 0 5 93 9 208 9 l207 0 18 -36z m-502 -274
l56 -185 -24 -35 c-12 -19 -23 -40 -23 -47 0 -7 -1 -13 -3 -13 -2 0 -115 -23
-252 -50 -137 -27 -254 -50 -260 -50 -6 0 -19 15 -29 34 l-18 33 213 252 c210
249 213 252 248 249 l35 -3 57 -185z m224 -265 c14 -13 25 -36 25 -50 0 -30
-49 -85 -75 -85 -24 0 -72 27 -79 45 -32 86 66 154 129 90z m-845 -115 c25
-25 26 -80 1 -111 -36 -45 -126 -21 -131 36 -6 61 21 95 75 95 22 0 43 -8 55
-20z"/>
</g>
</svg>
